<svg width="24" height="24" viewBox="0 0 24 24" fill="none" xmlns="http://www.w3.org/2000/svg">
  <!-- Background window strokes (clipped to not overlap front window) -->
  <path d="M6.5 15.5 H4 A1 1 0 0 1 3 14.5 V5 A1 1 0 0 1 4 4 H16.5 A1 1 0 0 1 17.5 5 V8.5" stroke="currentColor" stroke-width="1.2" fill="none" stroke-linecap="round" stroke-linejoin="round"/>
  <path d="M3 7.5 H17.5" stroke="currentColor" stroke-width="1.2" stroke-linecap="round" stroke-linejoin="round"/>

  <!-- Background window dots -->
  <circle cx="5" cy="5.75" r="0.6" fill="currentColor"/>
  <circle cx="7" cy="5.75" r="0.6" fill="currentColor"/>
  <circle cx="9" cy="5.75" r="0.6" fill="currentColor"/>

  <!-- Foreground window -->
  <rect x="7.5" y="9" width="13.5" height="11.5" rx="1" stroke="currentColor" stroke-width="1.2" fill="none"/>
  <path d="M7.5 12 H21" stroke="currentColor" stroke-width="1.2" stroke-linecap="round" stroke-linejoin="round"/>
  
  <!-- Foreground dots -->
  <circle cx="9.5" cy="10.5" r="0.6" fill="currentColor"/>
  <circle cx="11.5" cy="10.5" r="0.6" fill="currentColor"/>
  <circle cx="13.5" cy="10.5" r="0.6" fill="currentColor"/>

  <!-- Code < /> inside the front window -->
  <path d="M12 14.5 L9.5 16.5 L12 18.5 M16.5 14.5 L19 16.5 L16.5 18.5 M15 13.5 L13.5 19.5" stroke="currentColor" stroke-width="1.2" stroke-linecap="round" stroke-linejoin="round"/>
</svg>
